<svg width="20" height="20" viewBox="0 0 20 20" fill="none" xmlns="http://www.w3.org/2000/svg">
<circle cx="10" cy="10" r="8.75" fill="#196CFC"/>
<path fill-rule="evenodd" clip-rule="evenodd" d="M9.99544 7.49833C9.53521 7.49833 9.16211 7.12524 9.16211 6.665C9.16211 6.20476 9.53521 5.83167 9.99544 5.83167H10.0029C10.4632 5.83167 10.8363 6.20476 10.8363 6.665C10.8363 7.12524 10.4632 7.49833 10.0029 7.49833H9.99544ZM10.625 13.3325C10.625 13.6777 10.3452 13.9575 10 13.9575C9.65484 13.9575 9.37502 13.6777 9.37502 13.3325V9.16581C9.37502 8.82063 9.65484 8.54081 10 8.54081C10.3452 8.54081 10.625 8.82063 10.625 9.16581V13.3325Z" fill="white"/>
</svg>
