<svg width="20" height="20" viewBox="0 0 20 20" fill="none" xmlns="http://www.w3.org/2000/svg">
<circle cx="8.75" cy="8.75" r="8.75" transform="matrix(1 0 0 -1 1.25 18.75)" fill="#F54545"/>
<path fill-rule="evenodd" clip-rule="evenodd" d="M10.625 6.66748C10.625 6.3223 10.3452 6.04248 10 6.04248C9.65484 6.04248 9.37502 6.3223 9.37502 6.66748V10.8341C9.37502 11.1793 9.65484 11.4591 10 11.4591C10.3452 11.4591 10.625 11.1793 10.625 10.8341V6.66748ZM9.99544 12.5016C9.53521 12.5016 9.16211 12.8747 9.16211 13.335C9.16211 13.7952 9.53521 14.1683 9.99544 14.1683H10.0029C10.4632 14.1683 10.8363 13.7952 10.8363 13.335C10.8363 12.8747 10.4632 12.5016 10.0029 12.5016H9.99544Z" fill="white"/>
</svg>
