<svg width="25" height="24" viewBox="0 0 25 24" fill="none" xmlns="http://www.w3.org/2000/svg">
<path d="M21.0402 8.63438C20.9615 7.60368 20.1749 6.28227 19.3881 5.648C18.5035 4.99889 17.5844 4.39896 16.6347 3.85089C15.6923 3.28794 14.7207 2.77627 13.724 2.31806C13.1915 2.09918 12.6206 1.99129 12.0457 2.00093C11.4705 1.98875 10.8991 2.09673 10.3674 2.31806C9.37088 2.77659 8.39921 3.28826 7.45662 3.85089C5.93569 4.77587 4.70319 5.648 4.70319 5.648C4.04821 6.20045 3.55399 6.91343 3.26315 7.71108C3.21112 7.85378 3.32021 8 3.47209 8H4.7294C4.89827 8 5.05141 7.90521 5.14 7.76142C5.36394 7.39797 5.6462 7.0698 5.9786 6.79136C5.9786 6.79136 6.99624 6.07622 8.25205 5.31773C9.03032 4.85637 9.83256 4.43681 10.6554 4.06081C11.0944 3.87931 11.5663 3.79077 12.0412 3.80076C12.5158 3.79286 12.9872 3.88132 13.4269 4.06081C14.2498 4.43654 15.0521 4.85612 15.8302 5.31773C16.6143 5.76714 17.3732 6.25909 18.1036 6.79136C18.7532 7.31147 19.4028 8.39502 19.4677 9.24022C19.4677 9.24022 19.6193 10.4972 19.6409 11.9859C19.6396 12.9054 19.589 13.8241 19.4894 14.7381C19.3383 15.6952 18.8461 16.5651 18.1036 17.187C18.1036 17.187 17.086 17.9238 15.8302 18.6823C15.0519 19.1436 14.2497 19.5632 13.4269 19.9392C12.9878 20.1207 12.5161 20.2092 12.0412 20.1992C11.5669 20.2092 11.0955 20.123 10.6554 19.9457C9.83247 19.57 9.03015 19.1504 8.25205 18.6888C6.99624 17.952 5.9786 17.1934 5.9786 17.1934C5.68892 16.9615 5.39923 16.6175 5.15948 16.2325C5.07168 16.0916 4.92027 16 4.75418 16H3.47741C3.32358 16 3.21458 16.1495 3.27125 16.2926C3.58573 17.0859 4.14446 17.883 4.70319 18.3335C4.70319 18.3335 5.93569 19.2585 7.45662 20.157C8.39904 20.7199 9.37071 21.2317 10.3674 21.6898C10.9004 21.906 11.4713 22.0112 12.0457 21.999C12.6208 22.0112 13.1923 21.9033 13.724 21.6819C14.7205 21.2234 15.6922 20.7117 16.6347 20.1491C18.1557 19.2241 19.3881 18.3256 19.3881 18.3256C20.2873 17.5672 20.8834 16.5063 21.0665 15.3392C21.1872 14.2245 21.2484 13.1041 21.25 11.9828C21.2237 10.1672 21.0402 8.63438 21.0402 8.63438Z" fill="url(#paint0_linear_59_1621)"/>
<path d="M2.9762 9.89506C2.9762 9.67152 3.15743 9.49023 3.381 9.49023H9.65541C9.87895 9.49023 10.0602 9.67152 10.0602 9.89506V11.1095C10.0602 11.333 9.87895 11.5142 9.65541 11.5142H2.9762V9.89506Z" fill="#0066B3"/>
<path d="M2.97607 12.7285H15.7273C15.9508 12.7285 16.132 12.9098 16.132 13.1333V14.3477C16.132 14.5713 15.9508 14.7525 15.7273 14.7525H3.38087C3.15731 14.7525 2.97607 14.5713 2.97607 14.3477V12.7285Z" fill="#EE2F53"/>
<defs>
<linearGradient id="paint0_linear_59_1621" x1="12.0412" y1="2" x2="12.0412" y2="22.0002" gradientUnits="userSpaceOnUse">
<stop stop-color="#0066B3"/>
<stop offset="0.354167" stop-color="#0066B3"/>
<stop offset="0.6875" stop-color="#EE2F53"/>
<stop offset="1" stop-color="#EE2F53"/>
</linearGradient>
</defs>
</svg>
